HIERARCHY
ROOT Hips
{
	OFFSET	0.00	0.00	0.00
	CHANNELS 6 Xposition Yposition Zposition Zrotation Xrotation Yrotation
	JOINT LeftUpLeg
	{
		OFFSET	 0.126116	-0.065224	 0.014019
		CHANNELS 3 Zrotation Xrotation Yrotation
		JOINT LeftLeg
		{
			OFFSET	 0.000000	 0.569914	 0.000000
			CHANNELS 3 Zrotation Xrotation Yrotation
			JOINT LeftFoot
			{
				OFFSET	 0.000000	 0.544423	 0.000000
				CHANNELS 3 Zrotation Xrotation Yrotation
				JOINT LeftToeBase
				{
					OFFSET	 0.000000	 0.207117	 0.000000
					CHANNELS 3 Zrotation Xrotation Yrotation
					End Site
					{
						OFFSET	 0.000000	 0.207117	 0.000000
					}
				}
			}
		}
	}
	JOINT RightUpLeg
	{
		OFFSET	-0.124023	-0.065224	 0.008373
		CHANNELS 3 Zrotation Xrotation Yrotation
		JOINT RightLeg
		{
			OFFSET	 0.000000	 0.570047	 0.000000
			CHANNELS 3 Zrotation Xrotation Yrotation
			JOINT RightFoot
			{
				OFFSET	 0.000000	 0.544354	 0.000000
				CHANNELS 3 Zrotation Xrotation Yrotation
				JOINT RightToeBase
				{
					OFFSET	 0.000000	 0.207540	 0.000000
					CHANNELS 3 Zrotation Xrotation Yrotation
					End Site
					{
						OFFSET	 0.000000	 0.207540	 0.000000
					}
				}
			}
		}
	}
	JOINT Spine
	{
		OFFSET	 0.000184	 0.117403	 0.007763
		CHANNELS 3 Zrotation Xrotation Yrotation
		JOINT Spine1
		{
			OFFSET	 0.000000	 0.137269	 0.000000
			CHANNELS 3 Zrotation Xrotation Yrotation
			JOINT Spine2
			{
				OFFSET	 0.000000	 0.156879	 0.000000
				CHANNELS 3 Zrotation Xrotation Yrotation
				JOINT LeftShoulder
				{
					OFFSET	 0.080501	 0.160143	 0.002496
					CHANNELS 3 Zrotation Xrotation Yrotation
					JOINT LeftArm
					{
						OFFSET	 0.000000	 0.164363	 0.000000
						CHANNELS 3 Zrotation Xrotation Yrotation
						JOINT LeftForeArm
						{
							OFFSET	 0.000000	 0.364576	 0.000000
							CHANNELS 3 Zrotation Xrotation Yrotation
							JOINT LeftHand
							{
								OFFSET	 0.000000	 0.360812	 0.000000
								CHANNELS 3 Zrotation Xrotation Yrotation
								JOINT LeftHandIndex1
								{
									OFFSET	 0.000000	 0.086006	 0.000000
									CHANNELS 3 Zrotation Xrotation Yrotation
									JOINT LeftHandIndex2
									{
										OFFSET	 0.000000	 0.047237	 0.000000
										CHANNELS 3 Zrotation Xrotation Yrotation
										JOINT LeftHandIndex3
										{
											OFFSET	-0.004284	 0.038165	 0.000551
											CHANNELS 3 Zrotation Xrotation Yrotation
											End Site
											{
												OFFSET	-0.004284	 0.038165	 0.000551
											}
										}
									}
								}
							}
						}
					}
				}
				JOINT Neck
				{
					OFFSET	 0.000000	 0.176489	 0.000000
					CHANNELS 3 Zrotation Xrotation Yrotation
					JOINT Head
					{
						OFFSET	 0.000000	 0.077941	 0.001747
						CHANNELS 3 Zrotation Xrotation Yrotation
						End Site
						{
							OFFSET	 0.000000	 0.077941	 0.001747
						}
					}
				}
				JOINT RightShoulder
				{
					OFFSET	-0.080363	 0.159706	-0.000306
					CHANNELS 3 Zrotation Xrotation Yrotation
					JOINT RightArm
					{
						OFFSET	 0.000000	 0.164196	 0.000000
						CHANNELS 3 Zrotation Xrotation Yrotation
						JOINT RightForeArm
						{
							OFFSET	 0.000000	 0.365611	 0.000000
							CHANNELS 3 Zrotation Xrotation Yrotation
							JOINT RightHand
							{
								OFFSET	 0.000000	 0.360648	 0.000000
								CHANNELS 3 Zrotation Xrotation Yrotation
								JOINT RightHandIndex1
								{
									OFFSET	 0.000000	 0.069977	 0.000000
									CHANNELS 3 Zrotation Xrotation Yrotation
									JOINT RightHandIndex2
									{
										OFFSET	 0.000000	 0.052305	 0.000000
										CHANNELS 3 Zrotation Xrotation Yrotation
										JOINT RightHandIndex3
										{
											OFFSET	 0.009002	 0.042196	 0.000782
											CHANNELS 3 Zrotation Xrotation Yrotation
											End Site
											{
												OFFSET	 0.009002	 0.042196	 0.000782
											}
										}
									}
								}
							}
						}
					}
				}
			}
		}
	}
}
MOTION
Frames:    11
Frame Time: 0.03333334
-0.001033	 1.299259	-0.013795	 0.408164	 1.948052	 177.774800	 176.887000	 4.384471	 8.644342	 3.516953	-17.261150	 3.018856	-2.518063	 66.422690	 5.572014	 1.331492	 28.938720	-2.729976	-176.147700	 4.651961	-7.472575	-5.113371	-16.385220	-7.351715	-1.658349	 65.129210	 0.840500	-1.310215	 28.641000	 2.376010	-0.981329	 1.933579	-1.652854	-0.871172	 6.122352	-1.336216	-0.810038	-6.836676	 1.635928	-113.435000	 5.408412	 92.948510	-9.427978	 45.250510	 49.792460	 36.878980	-1.778658	 0.509201	-16.511520	 0.918115	-20.881910	-6.580301	 5.266122	 0.000000	 0.000000	 0.000000	 0.000000	 0.000000	 0.000000	 0.000000	 4.960664	-0.505974	 0.277912	 1.540196	 1.821796	 3.384009	 114.284100	-4.864195	-88.075420	-63.340140	 8.910140	 49.050510	-84.186790	-2.241532	-1.966447	-20.985130	-4.209962	-18.679490	-0.359560	 10.576780	 0.744499	 11.977700	 9.311786	-2.094867	-8.359078	 3.147504	 0.104423
 0.000681	 1.299247	-0.012343	 0.361680	 2.000752	 177.800600	 176.940800	 4.353877	 8.685823	 3.499209	-17.179280	 2.918173	-2.846773	 66.327160	 5.836701	 1.331492	 28.938720	-2.729976	-176.099500	 4.689973	-7.472620	-5.123875	-16.416990	-7.502244	-1.990537	 65.118840	 1.194174	-1.308032	 28.612150	 2.428184	-0.985386	 1.994213	-1.477525	-0.859451	 6.219238	-1.242149	-0.829682	-6.778434	 1.426896	-113.435500	 5.431643	 92.965090	-10.022040	 45.498160	 49.920300	 36.556570	-1.765414	 0.499284	-16.185120	-0.247131	-20.263570	-6.580301	 5.266122	 0.000000	 0.000000	 0.000000	 0.000000	 0.000000	 0.000000	 0.000000	 5.035673	-0.481749	 0.221745	 1.911172	 1.732351	 3.214313	 114.284900	-4.867699	-88.068370	-61.401270	 10.795230	 43.101120	-90.578820	-2.252968	-2.217250	-20.271420	-1.044542	-20.225900	-0.382688	 11.240100	 0.748880	 11.987030	 9.960888	-2.234601	-8.366034	 3.505557	 0.081501
 0.002884	 1.299189	-0.010859	 0.318058	 2.072056	 178.066300	 176.984100	 4.350653	 8.947170	 3.493075	-17.150930	 3.059699	-2.676255	 66.256030	 5.520514	 1.331492	 28.938720	-2.729976	-176.066400	 4.695668	-7.232224	-5.127032	-16.426530	-7.501371	-2.044067	 65.117450	 1.205194	-1.305677	 28.581470	 2.484694	-0.989754	 2.061437	-1.238826	-0.866504	 6.349751	-1.121863	-0.877577	-6.727897	 1.111096	-113.436300	 5.450991	 92.983650	-10.421810	 45.997410	 49.817070	 36.305430	-1.754898	 0.491543	-15.385020	-2.228486	-19.342590	-6.580301	 5.266122	 0.000000	 0.000000	 0.000000	 0.000000	 0.000000	 0.000000	 0.000000	 5.100132	-0.446676	 0.118301	 2.505455	 1.580246	 2.911338	 114.281400	-4.842514	-88.081190	-58.869270	 12.644560	 34.513650	-97.689210	-2.232836	-2.495945	-19.183480	-0.654710	-21.822270	-0.416729	 12.210920	 0.755803	 12.003630	 10.910850	-2.439837	-8.375958	 4.029534	 0.048021
 0.005041	 1.299110	-0.009543	 0.273627	 2.135150	 178.299900	 177.019200	 4.354657	 9.177437	 3.489292	-17.133580	 3.183773	-2.536518	 66.194670	 5.247670	 1.331492	 28.938720	-2.729976	-176.038700	 4.713358	-7.021468	-5.133791	-16.446950	-7.501374	-2.089222	 65.114420	 1.213629	-1.303593	 28.554700	 2.534011	-0.996901	 2.122648	-0.963486	-0.927302	 6.466652	-0.947935	-0.898369	-6.678327	 0.833646	-113.437000	 5.467864	 92.999840	-10.603510	 46.574990	 49.612360	 36.125890	-1.747519	 0.486110	-14.927010	-4.175793	-18.408200	-6.580301	 5.266122	 0.000000	 0.000000	 0.000000	 0.000000	 0.000000	 0.000000	 0.000000	 5.156451	-0.416154	 0.027971	 3.023261	 1.445674	 2.647947	 114.278300	-4.820531	-88.092370	-57.347040	 14.329130	 26.183530	-103.177100	-2.193822	-2.707965	-18.262130	-0.860353	-24.496920	-0.446654	 13.058530	 0.762353	 12.021010	 11.740210	-2.619813	-8.384378	 4.486956	 0.018851
 0.007513	 1.298997	-0.008094	 0.219959	 2.204855	 178.557000	 177.052700	 4.368204	 9.431002	 3.486673	-17.121440	 3.321153	-2.386212	 66.124920	 4.948511	 1.331492	 28.938720	-2.729976	-176.009500	 4.743701	-6.790278	-5.145850	-16.483410	-7.502235	-2.135758	 65.113880	 1.221549	-1.301267	 28.525200	 2.588325	-1.007221	 2.192841	-0.618432	-1.025338	 6.593598	-0.713765	-0.910177	-6.615327	 0.526256	-113.437700	 5.486426	 93.017670	-10.644950	 47.299260	 49.267060	 35.959440	-1.740442	 0.480988	-14.588210	-6.500775	-17.309290	-6.580301	 5.266122	 0.000000	 0.000000	 0.000000	 0.000000	 0.000000	 0.000000	 0.000000	 5.218549	-0.382634	-0.071573	 3.592624	 1.295479	 2.358974	 114.274900	-4.796339	-88.104660	-56.565530	 16.069380	 16.452040	-107.529300	-2.148596	-2.872987	-17.721890	-1.429449	-28.302160	-0.479862	 13.992320	 0.770125	 12.043310	 12.653820	-2.819042	-8.393389	 4.990870	-0.013229
 0.009865	 1.298869	-0.006701	 0.165144	 2.273162	 178.808800	 177.077500	 4.391936	 9.679247	 3.485508	-17.116030	 3.455545	-2.238081	 66.051610	 4.657269	 1.331492	 28.938720	-2.729976	-175.982400	 4.780351	-6.564293	-5.162483	-16.533650	-7.504096	-2.177011	 65.120880	 1.228413	-1.298972	 28.496470	 2.641224	-1.018484	 2.263997	-0.271521	-1.124333	 6.713264	-0.475429	-0.921840	-6.544779	 0.225092	-113.438500	 5.504562	 93.035060	-10.541410	 48.029870	 48.808750	 35.822270	-1.734810	 0.476873	-14.348310	-8.887488	-16.236120	-6.580301	 5.266122	 0.000000	 0.000000	 0.000000	 0.000000	 0.000000	 0.000000	 0.000000	 5.279099	-0.350083	-0.168582	 4.146207	 1.147056	 2.078662	 114.271600	-4.772746	-88.116670	-56.459940	 17.579000	 6.995529	-109.740900	-2.120755	-2.955322	-18.143480	-2.114228	-31.991250	-0.512471	 14.901960	 0.778265	 12.068250	 13.543740	-3.014183	-8.401900	 5.481781	-0.044429
 0.012057	 1.298723	-0.005316	 0.108607	 2.342952	 179.067200	 177.091900	 4.429174	 9.934097	 3.485699	-17.116940	 3.593912	-2.077908	 65.968110	 4.356590	 1.331492	 28.938720	-2.729976	-175.955700	 4.822888	-6.332735	-5.185391	-16.602810	-7.507247	-2.213639	 65.141660	 1.234743	-1.296587	 28.466990	 2.695472	-1.029932	 2.339791	 0.063098	-1.200929	 6.824512	-0.254266	-0.945420	-6.458942	-0.085366	-113.439200	 5.523135	 93.052880	-10.307350	 48.731540	 48.214150	 35.716920	-1.730352	 0.473631	-14.137590	-11.391980	-15.204570	-6.580301	 5.266122	 0.000000	 0.000000	 0.000000	 0.000000	 0.000000	 0.000000	 0.000000	 5.341265	-0.316801	-0.268123	 4.712888	 0.993176	 1.792428	 114.268300	-4.748559	-88.128960	-56.323760	 18.733130	-2.078795	-110.287700	-2.113398	-2.975537	-19.966060	-2.786772	-34.718100	-0.546201	 15.834830	 0.787210	 12.097180	 14.456290	-3.215510	-8.410359	 5.985300	-0.076381
 0.013766	 1.298576	-0.004055	 0.049654	 2.402952	 179.318500	 177.084400	 4.479967	 10.189650	 3.484892	-17.113200	 3.750906	-1.855888	 65.881390	 4.005379	 1.331492	 28.938720	-2.729976	-175.940400	 4.878029	-6.089779	-5.216914	-16.697840	-7.496863	-2.212615	 65.187440	 1.205163	-1.294593	 28.442750	 2.742362	-1.037738	 2.412571	 0.320363	-1.237395	 6.913040	-0.101873	-0.986052	-6.367422	-0.376770	-113.439900	 5.526543	 93.063140	-9.946600	 49.254860	 47.617390	 35.675350	-1.728629	 0.472423	-13.987990	-13.859970	-14.398890	-6.580301	 5.266122	 0.000000	 0.000000	 0.000000	 0.000000	 0.000000	 0.000000	 0.000000	 5.368685	-0.288149	-0.355007	 5.153632	 0.850978	 1.535290	 114.264500	-4.722283	-88.143230	-55.200300	 19.918910	-9.228248	-110.009200	-2.117226	-2.965276	-21.444560	-3.487885	-35.375850	-0.579783	 16.755170	 0.796636	 12.129110	 15.356490	-3.415438	-8.418281	 6.472255	-0.107240
 0.015172	 1.298411	-0.002792	-0.047842	 2.435578	 179.609900	 177.020400	 4.562468	 10.524960	 3.473984	-17.062810	 4.036948	-1.338809	 65.787420	 3.333664	 1.331492	 28.938720	-2.729976	-175.969600	 5.004856	-5.720890	-5.276042	-16.875900	-7.415909	-2.064285	 65.294850	 1.001183	-1.294001	 28.436180	 2.768036	-1.037709	 2.479887	 0.522114	-1.306345	 7.005714	 0.019990	-1.029188	-6.300358	-0.655583	-113.440200	 5.460014	 93.040740	-9.169361	 49.601470	 47.203090	 35.768760	-1.732557	 0.475260	-14.186530	-16.863300	-13.826710	-6.580301	 5.266122	 0.000000	 0.000000	 0.000000	 0.000000	 0.000000	 0.000000	 0.000000	 5.241210	-0.272603	-0.406864	 5.133767	 0.732910	 1.336349	 114.258200	-4.679034	-88.170550	-51.426270	 24.598570	-13.315440	-109.163600	-2.128350	-2.934000	-16.281830	-5.146332	-33.433600	-0.621104	 17.875610	 0.808933	 12.172590	 16.452260	-3.660751	-8.426859	 7.018064	-0.141785
 0.016411	 1.298226	-0.001579	-0.147233	 2.467891	 179.899600	 176.944500	 4.663346	 10.858740	 3.464100	-17.017140	 4.321968	-0.823622	 65.675580	 2.668025	 1.331492	 28.938720	-2.729976	-175.998800	 5.136871	-5.354515	-5.340521	-17.069670	-7.337797	-1.915742	 65.411860	 0.799229	-1.293410	 28.429660	 2.793518	-1.038865	 2.546300	 0.736746	-1.364041	 7.113036	 0.153888	-1.078300	-6.241699	-0.934001	-113.440500	 5.393969	 93.018520	-8.145853	 49.947440	 46.565860	 35.943140	-1.739881	 0.480536	-14.512010	-19.789590	-13.260730	-6.580301	 5.266122	 0.000000	 0.000000	 0.000000	 0.000000	 0.000000	 0.000000	 0.000000	 5.114697	-0.257059	-0.458301	 5.113643	 0.615653	 1.138382	 114.251900	-4.636105	-88.197640	-45.805340	 28.170010	-17.568070	-107.551000	-2.148292	-2.873795	-13.250090	-7.104731	-30.384030	-0.662654	 18.988170	 0.822068	 12.220880	 17.540150	-3.906625	-8.435055	 7.559866	-0.176036
 0.017464	 1.298033	-0.000442	-0.244025	 2.498606	-179.821200	 176.862300	 4.769416	 11.180150	 3.455093	-16.975430	 4.597301	-0.326022	 65.557670	 2.029539	 1.331492	 28.938720	-2.729976	-176.029300	 5.268615	-5.001965	-5.407161	-17.269470	-7.264524	-1.767951	 65.533530	 0.604337	-1.292838	 28.423380	 2.818040	-1.040329	 2.609781	 0.937120	-1.408874	 7.217595	 0.275246	-1.130704	-6.186541	-1.203463	-113.440900	 5.330425	 92.997150	-7.009344	 50.270710	 45.814220	 36.120970	-1.747233	 0.485985	-14.849880	-22.566100	-12.751960	-6.580301	 5.266122	 0.000000	 0.000000	 0.000000	 0.000000	 0.000000	 0.000000	 0.000000	 4.992947	-0.241991	-0.507773	 5.093896	 0.502758	 0.947400	 114.245900	-4.594797	-88.223710	-39.576740	 30.559990	-21.596190	-105.156700	-2.174767	-2.783478	-11.538240	-8.930282	-26.364090	-0.703180	 20.059180	 0.835611	 12.272310	 18.587230	-4.145677	-8.442646	 8.081356	-0.208971
